<?xml version="1.0" ?><svg enable-background="new 0 0 64 64" height="64px" id="Layer_1" version="1.1" viewBox="0 0 64 64" width="64px" xml:space="preserve" xmlns="http://www.w3.org/2000/svg" xmlns:xlink="http://www.w3.org/1999/xlink"><circle cx="32" cy="32" fill="#E0E0D1" r="32"/><g opacity="0.2"><path d="M50.5,45H50H38H25.035L43,27.035V42h5V22.035l2.768-2.768c0.472-0.472,0.732-1.1,0.732-1.768   s-0.26-1.296-0.733-1.768C50.295,15.26,49.668,15,49,15c-0.668,0-1.295,0.26-1.768,0.732L43.465,19.5H24V24h14.465L21,41.965V29V17   c0-1.378-1.122-2.5-2.5-2.5c-1.379,0-2.5,1.122-2.5,2.5v2h-2.5c-1.379,0-2.5,1.122-2.5,2.5s1.121,2.5,2.5,2.5H16v23.5   c0,1.379,1.121,2.5,2.5,2.5H43v2.5c0,1.379,1.121,2.5,2.5,2.5c1.378,0,2.5-1.121,2.5-2.5V50h2.5c1.378,0,2.5-1.121,2.5-2.5   S51.878,45,50.5,45z" fill="#231F20"/></g><g><path d="M50.5,43H50H38H25.035L43,25.035V40h5V20.035l2.768-2.768c0.472-0.472,0.732-1.1,0.732-1.768   c0-0.668-0.26-1.296-0.733-1.768C50.295,13.26,49.668,13,49,13c-0.668,0-1.295,0.26-1.768,0.732L43.982,17H24v5h14.982L21,39.965   V27V15c0-1.378-1.122-2.5-2.5-2.5c-1.379,0-2.5,1.122-2.5,2.5v2h-2.5c-1.379,0-2.5,1.122-2.5,2.5s1.121,2.5,2.5,2.5H16v23.5   c0,1.379,1.121,2.5,2.5,2.5H43v2.5c0,1.379,1.121,2.5,2.5,2.5c1.378,0,2.5-1.121,2.5-2.5V48h2.5c1.378,0,2.5-1.121,2.5-2.5   S51.878,43,50.5,43z" fill="#4F5D73"/></g></svg>